<svg width="392" height="67" viewBox="0 0 392 67" fill="none" xmlns="http://www.w3.org/2000/svg">
<path d="M114.841 46.3398L105.412 23.8799L102.448 22.9392L102.566 20.6462H114.544L114.663 22.9392L111.579 23.8799L118.221 40.6366L116.679 40.6954L123.558 23.8799L120.474 22.9392L120.593 20.6462H130.08L130.199 22.9392L127.412 23.8799L116.916 46.3398H114.841ZM97.1107 46.3398L87.2079 23.8799L84.4209 22.9392L84.5395 20.6462H96.577L96.6956 22.9392L93.7307 23.8799L100.787 40.6366L98.9489 40.6954L106.539 23.5271L108.318 27.2312L99.1861 46.3398H97.1107Z" fill="#18181A"/>
<path d="M144.253 46.5749C141.881 46.5749 139.746 46.0458 137.848 44.9875C135.951 43.9291 134.449 42.4397 133.342 40.519C132.274 38.5984 131.741 36.3641 131.741 33.8163C131.741 31.0725 132.334 28.6815 133.52 26.6433C134.706 24.5658 136.247 22.9588 138.145 21.8221C140.042 20.6853 142.098 20.1366 144.312 20.1758C147.554 20.215 150.044 21.2733 151.783 23.3507C153.562 25.389 154.452 28.172 154.452 31.6997V32.8756H136.603V30.1122H150.005L149.234 31.1117V29.6419C149.234 27.5252 148.74 25.8789 147.751 24.703C146.802 23.4879 145.498 22.8804 143.838 22.8804C142.77 22.8804 141.742 23.194 140.754 23.8211C139.805 24.4483 139.034 25.389 138.441 26.6433C137.888 27.8976 137.611 29.4655 137.611 31.3469V32.2289C137.611 35.2862 138.382 37.6968 139.924 39.4607C141.505 41.2246 143.561 42.1065 146.091 42.1065C147.474 42.1065 148.7 41.8517 149.767 41.3421C150.874 40.7934 151.961 39.9115 153.029 38.6964L154.63 40.1662C153.523 42.3221 152.06 43.9291 150.242 44.9875C148.463 46.0458 146.466 46.5749 144.253 46.5749Z" fill="#18181A"/>
<path d="M171.411 46.5749C169.079 46.5749 166.964 46.0654 165.066 45.0463C163.169 44.0271 161.647 42.5573 160.5 40.6366C159.393 38.716 158.84 36.4817 158.84 33.9339C158.84 31.3861 159.433 29.0735 160.619 26.9961C161.805 24.9186 163.445 23.2723 165.541 22.0572C167.636 20.8029 170.008 20.1758 172.656 20.1758C174.396 20.1758 175.878 20.411 177.104 20.8813C178.369 21.3125 179.337 21.9005 180.009 22.6452C180.681 23.3899 181.017 24.1739 181.017 24.997C181.017 25.7418 180.78 26.3493 180.306 26.8197C179.871 27.2508 179.278 27.4664 178.527 27.4664C177.855 27.4664 177.262 27.3488 176.748 27.1137C176.234 26.8393 175.641 26.3689 174.969 25.7026L171.53 22.41L173.902 23.0568C172.478 22.7432 171.075 22.9 169.691 23.5271C168.347 24.1543 167.24 25.2322 166.371 26.7609C165.501 28.2504 165.066 30.171 165.066 32.5228C165.066 35.6194 165.837 37.9908 167.379 39.6371C168.96 41.2834 170.917 42.1065 173.249 42.1065C174.633 42.1065 175.858 41.8517 176.926 41.3421C178.033 40.7934 179.1 39.9115 180.128 38.6964L181.788 40.1074C180.681 42.2633 179.219 43.89 177.4 44.9875C175.621 46.0458 173.625 46.5749 171.411 46.5749Z" fill="#18181A"/>
<path d="M193.766 46.5749C192.106 46.5749 190.643 46.2418 189.378 45.5754C188.113 44.8699 187.145 44.0075 186.473 42.9884C185.801 41.9693 185.465 40.9502 185.465 39.9311C185.465 38.5984 185.9 37.4812 186.769 36.5797C187.639 35.6782 189.042 34.9334 190.979 34.3455L200.111 31.4057V28.7011C200.111 27.7604 199.815 26.9177 199.222 26.1729C198.668 25.389 197.917 24.7618 196.969 24.2915C196.02 23.8211 194.972 23.5859 193.826 23.5859C192.917 23.5859 192.304 23.7819 191.988 24.1739C191.671 24.5267 191.474 25.2518 191.395 26.3493L191.217 29.1715C189.635 29.5243 188.291 29.4851 187.184 29.0539C186.117 28.5835 185.583 27.8192 185.583 26.7609C185.583 26.0945 185.9 25.4086 186.532 24.703C187.204 23.9975 188.034 23.3311 189.023 22.704C190.05 22.0768 191.138 21.5477 192.284 21.1165C193.43 20.6462 194.518 20.3326 195.545 20.1758C198.668 20.1758 201.139 20.9597 202.958 22.5276C204.816 24.0563 205.764 26.0945 205.804 28.6423L205.685 37.9908C205.685 38.8139 205.705 39.5783 205.745 40.2838C205.824 40.9502 205.923 41.4597 206.041 41.8125L209.896 42.5181V44.5759L206.693 45.8106C206.1 46.0458 205.547 46.2222 205.033 46.3398C204.519 46.4965 204.065 46.5749 203.669 46.5749C202.365 46.5749 201.475 45.8694 201.001 44.4583L200.23 41.9889L201.238 42.1065C199.973 43.5568 198.728 44.6739 197.502 45.4578C196.277 46.2026 195.031 46.5749 193.766 46.5749ZM195.842 42.5181C196.633 42.5181 197.384 42.3417 198.095 41.9889C198.807 41.6361 199.479 41.107 200.111 40.4014V34.3455L194.3 35.7566C193.351 35.9918 192.66 36.3641 192.225 36.8737C191.829 37.3441 191.632 37.9712 191.632 38.7552C191.632 39.7351 192.047 40.617 192.877 41.4009C193.707 42.1457 194.695 42.5181 195.842 42.5181Z" fill="#18181A"/>
<path d="M212.445 46.1046L212.267 43.8116L215.944 42.8708C215.983 42.6748 216.023 42.3417 216.063 41.8713C216.102 41.3617 216.142 40.6954 216.181 39.8723C216.221 39.0491 216.24 38.0104 216.24 36.7561L216.3 32.2289C216.3 30.9746 216.24 29.779 216.122 28.6423C216.043 27.4664 215.924 26.4669 215.766 25.6438L211.971 24.8206V22.6452L220.747 20.2934L221.933 21.2929L221.637 24.4679L221.814 24.5267C223.119 23.0372 224.463 21.9397 225.847 21.2341C227.27 20.5286 228.772 20.1758 230.353 20.1758C231.895 20.1758 233.318 20.5678 234.623 21.3517C235.927 22.0964 236.975 23.2332 237.766 24.7618C238.596 26.2905 239.011 28.1916 239.011 30.465V36.8149C239.011 38.1868 239.031 39.4607 239.07 40.6366C239.11 41.7733 239.189 42.5181 239.307 42.8708L242.984 43.8116L242.806 46.1046H229.938L229.82 43.8116L233.259 42.8708C233.299 42.5573 233.338 42.1457 233.378 41.6361C233.417 41.0874 233.437 40.4406 233.437 39.6959C233.476 38.9511 233.496 38.0888 233.496 37.1089V31.2293C233.496 29.5831 233.219 28.27 232.666 27.29C232.113 26.2709 231.401 25.5458 230.531 25.1146C229.701 24.6442 228.812 24.4091 227.863 24.4091C226.637 24.4091 225.491 24.703 224.424 25.291C223.396 25.8397 222.506 26.6237 221.755 27.6428V36.4033C221.755 38.0888 221.775 39.4999 221.814 40.6366C221.894 41.7733 221.992 42.5181 222.111 42.8708L225.787 43.8116L225.61 46.1046H212.445Z" fill="#18181A"/>
<path d="M245.712 46.1046L245.534 43.8116L249.21 42.8708C249.25 42.6748 249.289 42.3417 249.329 41.8713C249.368 41.3617 249.408 40.6954 249.447 39.8723C249.487 39.0491 249.507 38.0104 249.507 36.7561L249.566 32.2289C249.566 30.9746 249.507 29.779 249.388 28.6423C249.309 27.4664 249.19 26.4669 249.032 25.6438L245.237 24.8206V22.6452L254.013 20.2934L255.199 21.2929L254.903 24.4679L255.081 24.5267C256.385 23.0372 257.729 21.9397 259.113 21.2341C260.536 20.5286 262.038 20.1758 263.62 20.1758C265.161 20.1758 266.584 20.5678 267.889 21.3517C269.194 22.0964 270.241 23.2332 271.032 24.7618C271.862 26.2905 272.277 28.1916 272.277 30.465V36.8149C272.277 38.1868 272.297 39.4607 272.336 40.6366C272.376 41.7733 272.455 42.5181 272.574 42.8708L276.25 43.8116L276.072 46.1046H263.204L263.086 43.8116L266.525 42.8708C266.565 42.5573 266.604 42.1457 266.644 41.6361C266.683 41.0874 266.703 40.4406 266.703 39.6959C266.743 38.9511 266.762 38.0888 266.762 37.1089V31.2293C266.762 29.5831 266.486 28.27 265.932 27.29C265.379 26.2709 264.667 25.5458 263.797 25.1146C262.967 24.6442 262.078 24.4091 261.129 24.4091C259.904 24.4091 258.757 24.703 257.69 25.291C256.662 25.8397 255.772 26.6237 255.021 27.6428V36.4033C255.021 38.0888 255.041 39.4999 255.081 40.6366C255.16 41.7733 255.259 42.5181 255.377 42.8708L259.054 43.8116L258.876 46.1046H245.712Z" fill="#18181A"/>
<path d="M284.789 46.6925C283.603 46.6925 282.595 46.3006 281.765 45.5166C280.935 44.6935 280.52 43.7136 280.52 42.5769C280.52 41.7537 280.697 41.0482 281.053 40.4602C281.409 39.8331 281.903 39.3431 282.536 38.9903C283.208 38.5984 283.959 38.4024 284.789 38.4024C286.014 38.4024 287.042 38.7943 287.872 39.5783C288.703 40.3622 289.118 41.3421 289.118 42.5181C289.118 43.7332 288.703 44.7327 287.872 45.5166C287.042 46.3006 286.014 46.6925 284.789 46.6925Z" fill="#18181A"/>
<path d="M306.255 46.5749C303.922 46.5749 301.808 46.0654 299.91 45.0463C298.012 44.0271 296.49 42.5573 295.344 40.6366C294.237 38.716 293.684 36.4817 293.684 33.9339C293.684 31.3861 294.277 29.0735 295.463 26.9961C296.649 24.9186 298.289 23.2723 300.384 22.0572C302.48 20.8029 304.851 20.1758 307.5 20.1758C309.24 20.1758 310.722 20.411 311.947 20.8813C313.212 21.3125 314.181 21.9005 314.853 22.6452C315.525 23.3899 315.861 24.1739 315.861 24.997C315.861 25.7418 315.624 26.3493 315.15 26.8197C314.715 27.2508 314.122 27.4664 313.371 27.4664C312.699 27.4664 312.106 27.3488 311.592 27.1137C311.078 26.8393 310.485 26.3689 309.813 25.7026L306.373 22.41L308.745 23.0568C307.322 22.7432 305.919 22.9 304.535 23.5271C303.191 24.1543 302.084 25.2322 301.215 26.7609C300.345 28.2504 299.91 30.171 299.91 32.5228C299.91 35.6194 300.681 37.9908 302.223 39.6371C303.804 41.2834 305.761 42.1065 308.093 42.1065C309.477 42.1065 310.702 41.8517 311.77 41.3421C312.876 40.7934 313.944 39.9115 314.972 38.6964L316.632 40.1074C315.525 42.2633 314.062 43.89 312.244 44.9875C310.465 46.0458 308.469 46.5749 306.255 46.5749Z" fill="#18181A"/>
<path d="M328.61 46.5749C326.95 46.5749 325.487 46.2418 324.222 45.5754C322.957 44.8699 321.989 44.0075 321.317 42.9884C320.645 41.9693 320.308 40.9502 320.308 39.9311C320.308 38.5984 320.743 37.4812 321.613 36.5797C322.483 35.6782 323.886 34.9334 325.823 34.3455L334.955 31.4057V28.7011C334.955 27.7604 334.659 26.9177 334.066 26.1729C333.512 25.389 332.761 24.7618 331.812 24.2915C330.864 23.8211 329.816 23.5859 328.67 23.5859C327.76 23.5859 327.148 23.7819 326.831 24.1739C326.515 24.5267 326.317 25.2518 326.238 26.3493L326.06 29.1715C324.479 29.5243 323.135 29.4851 322.028 29.0539C320.961 28.5835 320.427 27.8192 320.427 26.7609C320.427 26.0945 320.743 25.4086 321.376 24.703C322.048 23.9975 322.878 23.3311 323.866 22.704C324.894 22.0768 325.981 21.5477 327.128 21.1165C328.274 20.6462 329.361 20.3326 330.389 20.1758C333.512 20.1758 335.983 20.9597 337.801 22.5276C339.659 24.0563 340.608 26.0945 340.648 28.6423L340.529 37.9908C340.529 38.8139 340.549 39.5783 340.588 40.2838C340.667 40.9502 340.766 41.4597 340.885 41.8125L344.739 42.5181V44.5759L341.537 45.8106C340.944 46.0458 340.391 46.2222 339.877 46.3398C339.363 46.4965 338.908 46.5749 338.513 46.5749C337.208 46.5749 336.319 45.8694 335.845 44.4583L335.074 41.9889L336.082 42.1065C334.817 43.5568 333.571 44.6739 332.346 45.4578C331.12 46.2026 329.875 46.5749 328.61 46.5749ZM330.686 42.5181C331.476 42.5181 332.227 42.3417 332.939 41.9889C333.651 41.6361 334.323 41.107 334.955 40.4014V34.3455L329.144 35.7566C328.195 35.9918 327.503 36.3641 327.068 36.8737C326.673 37.3441 326.475 37.9712 326.475 38.7552C326.475 39.7351 326.891 40.617 327.721 41.4009C328.551 42.1457 329.539 42.5181 330.686 42.5181Z" fill="#18181A"/>
<path d="M347.348 46.1046L347.171 43.8116L350.847 42.8708C350.887 42.714 350.926 42.3809 350.966 41.8713C351.005 41.3617 351.045 40.6758 351.084 39.8135C351.124 38.9511 351.143 37.932 351.143 36.7561L351.203 32.2289C351.203 30.9354 351.143 29.7203 351.025 28.5835C350.946 27.4468 350.827 26.4669 350.669 25.6438L346.874 24.8206V22.6452L355.591 20.2934L356.658 21.1753L356.421 25.9965L356.599 26.0553C357.745 23.8211 358.912 22.312 360.097 21.5281C361.323 20.7441 362.509 20.3522 363.655 20.3522C364.604 20.3522 365.415 20.607 366.087 21.1165C366.759 21.5869 367.095 22.3316 367.095 23.3507C367.095 24.3699 366.739 25.1538 366.027 25.7026C365.316 26.2513 364.426 26.5257 363.359 26.5257C362.568 26.5257 361.837 26.3689 361.165 26.0553C360.493 25.7418 359.821 25.2714 359.149 24.6442L360.335 24.9382C359.663 25.4086 359.01 26.0357 358.378 26.8197C357.745 27.6036 357.172 28.5639 356.658 29.7007L356.717 34.8747C356.757 36.0114 356.797 37.1285 356.836 38.226C356.876 39.2843 356.915 40.225 356.955 41.0482C356.994 41.8713 357.034 42.4789 357.073 42.8708L362.232 43.694L362.054 46.1046H347.348Z" fill="#18181A"/>
<path d="M381.623 46.5749C379.251 46.5749 377.116 46.0458 375.218 44.9875C373.321 43.9291 371.819 42.4397 370.712 40.519C369.644 38.5984 369.111 36.3641 369.111 33.8163C369.111 31.0725 369.704 28.6815 370.89 26.6433C372.076 24.5658 373.617 22.9588 375.515 21.8221C377.413 20.6853 379.468 20.1366 381.682 20.1758C384.924 20.215 387.414 21.2733 389.154 23.3507C390.932 25.389 391.822 28.172 391.822 31.6997V32.8756H373.973V30.1122H387.375L386.604 31.1117V29.6419C386.604 27.5252 386.11 25.8789 385.121 24.703C384.172 23.4879 382.868 22.8804 381.208 22.8804C380.14 22.8804 379.112 23.194 378.124 23.8211C377.175 24.4483 376.404 25.389 375.811 26.6433C375.258 27.8976 374.981 29.4655 374.981 31.3469V32.2289C374.981 35.2862 375.752 37.6968 377.294 39.4607C378.875 41.2246 380.931 42.1065 383.461 42.1065C384.845 42.1065 386.07 41.8517 387.137 41.3421C388.244 40.7934 389.331 39.9115 390.399 38.6964L392 40.1662C390.893 42.3221 389.43 43.9291 387.612 44.9875C385.833 46.0458 383.836 46.5749 381.623 46.5749Z" fill="#18181A"/>
<path d="M38.0508 45.7757C45.3651 47.3715 47.2488 56.0654 41.3258 60.114C39.5369 61.3362 37.4597 61.6775 35.3336 61.3227C32.0697 60.7512 30.1645 58.072 27.2988 56.6714C26.3244 56.1952 24.9112 56.8864 24.0744 57.6249C18.1504 62.853 15.0768 68.4455 6.02618 65.3317C0.60385 62.5316 -1.60258 55.6101 1.25347 50.282C2.62053 47.6874 4.21145 46.1617 7.02247 45.2962C12.0154 43.8137 16.1019 46.4871 20.3975 48.89C29.218 53.3104 28.3 44.2641 38.0508 45.7757Z" fill="url(#paint0_linear_6390_11243)"/>
<path d="M27.6241 5.21996C30.7862 0.0414127 37.4019 -1.56174 42.5535 1.67184C48.1445 5.19078 48.9365 11.7016 46.4791 16.267C42.5831 22.5862 35.4095 24.7918 35.3336 32.1968C35.3073 34.7609 35.0986 37.4404 33.0895 40.3679C31.934 42.0517 30.1521 43.2079 28.1391 43.5829C25.998 44.0003 23.7763 43.5534 21.9685 42.337C18.4384 39.9226 17.4228 34.8683 19.8773 31.3451C21.7118 28.7128 25.505 27.8393 28.0655 26.0299C29.5595 24.9741 29.4072 22.1136 29.2555 21.279C28.1072 14.9593 23.7301 11.5976 27.6241 5.21996Z" fill="url(#paint1_linear_6390_11243)"/>
<path d="M55.0916 35.8335C55.0916 40.2744 51.4298 43.8745 46.9127 43.8745C41.5241 43.9074 38.7337 41.4263 38.7337 35.8335C38.7337 31.3925 42.3956 27.7924 46.9127 27.7924C51.4298 27.7924 55.0916 31.6069 55.0916 35.8335Z" fill="url(#paint2_linear_6390_11243)"/>
<path d="M72.7965 50.7095C75.2331 56.3826 72.1423 63.1245 66.7601 65.4012C60.9897 67.8421 55.0137 65.0579 51.9 59.5488C48.8394 54.1334 50.9303 47.8206 57.9364 44.857C63.7068 42.4161 70.3599 45.0363 72.7965 50.7095Z" fill="url(#paint3_linear_6390_11243)"/>
<defs>
<linearGradient id="paint0_linear_6390_11243" x1="-50.3229" y1="36.4906" x2="109.23" y2="22.101" gradientUnits="userSpaceOnUse">
<stop stop-color="#88EAC5"/>
<stop offset="0.363517" stop-color="#588DFF"/>
<stop offset="0.451923" stop-color="#96ADFF"/>
<stop offset="0.581731" stop-color="#F36350"/>
<stop offset="0.75" stop-color="#F3AC50"/>
<stop offset="1" stop-color="#FCD757"/>
</linearGradient>
<linearGradient id="paint1_linear_6390_11243" x1="-50.3229" y1="36.4906" x2="109.23" y2="22.101" gradientUnits="userSpaceOnUse">
<stop stop-color="#88EAC5"/>
<stop offset="0.363517" stop-color="#588DFF"/>
<stop offset="0.451923" stop-color="#96ADFF"/>
<stop offset="0.581731" stop-color="#F36350"/>
<stop offset="0.75" stop-color="#F3AC50"/>
<stop offset="1" stop-color="#FCD757"/>
</linearGradient>
<linearGradient id="paint2_linear_6390_11243" x1="-50.3229" y1="36.4906" x2="109.23" y2="22.101" gradientUnits="userSpaceOnUse">
<stop stop-color="#88EAC5"/>
<stop offset="0.363517" stop-color="#588DFF"/>
<stop offset="0.451923" stop-color="#96ADFF"/>
<stop offset="0.581731" stop-color="#F36350"/>
<stop offset="0.75" stop-color="#F3AC50"/>
<stop offset="1" stop-color="#FCD757"/>
</linearGradient>
<linearGradient id="paint3_linear_6390_11243" x1="-50.3229" y1="36.4906" x2="109.23" y2="22.101" gradientUnits="userSpaceOnUse">
<stop stop-color="#88EAC5"/>
<stop offset="0.363517" stop-color="#588DFF"/>
<stop offset="0.451923" stop-color="#96ADFF"/>
<stop offset="0.581731" stop-color="#F36350"/>
<stop offset="0.75" stop-color="#F3AC50"/>
<stop offset="1" stop-color="#FCD757"/>
</linearGradient>
</defs>
</svg>
