<svg width="229" height="64" viewBox="0 0 229 64" fill="none" xmlns="http://www.w3.org/2000/svg">
<path fill-rule="evenodd" clip-rule="evenodd" d="M0.800358 0C0.358332 0 0 0.358171 0 0.799999V63.2C0 63.6418 0.358332 64 0.800357 64H63.2283C63.6703 64 64.0286 63.6418 64.0286 63.2V0.8C64.0286 0.358172 63.6703 0 63.2283 0H0.800358ZM27.5676 16.2631L16.2027 47.4632C16.1077 47.7241 16.3009 48 16.5787 48H25.2806C25.4483 48 25.5982 47.8955 25.6561 47.7382L37.1517 16.5382C37.2479 16.2771 37.0546 16 36.7762 16H27.9437C27.7754 16 27.6252 16.1052 27.5676 16.2631ZM44.2516 37.5971L47.8281 47.4637C47.9226 47.7245 47.7293 48 47.4518 48H41.639C41.469 48 41.3175 47.8926 41.2613 47.7322L37.8043 37.8655C37.7132 37.6055 37.9063 37.3333 38.182 37.3333H43.8753C44.0438 37.3333 44.1942 37.4388 44.2516 37.5971Z" fill="white"/>
<path d="M222.984 47.4946L218.837 41.5163H218.734L214.566 47.4946H208.591L215.654 36.813L208.652 26.5913H214.915L218.714 32.5697H218.816L222.656 26.5913H228.877L221.876 36.7921L229.001 47.4946H222.984Z" fill="white"/>
<path d="M200.709 47.5238V26.5874H206.259V47.5238H200.709Z" fill="white"/>
<path d="M189.857 47.875H189.836C186.523 47.875 183.706 46.8207 181.449 44.8569L184.141 41.0326C185.839 42.6037 187.62 43.4512 189.877 43.4512C191.493 43.4512 192.424 42.7277 192.424 41.7354C192.424 40.7845 191.348 40.3091 188.656 39.4409C185.239 38.3246 182.278 36.7122 182.278 32.7225C182.278 28.9809 185.508 26.521 189.732 26.521C192.611 26.521 194.951 27.3065 197.311 29.1256L194.619 33.1773C193.025 31.6683 191.203 30.9861 189.691 30.9861C188.78 30.9861 187.662 31.4616 187.662 32.5365C187.662 33.4047 188.738 34.0042 190.768 34.769C195.261 36.4228 197.891 37.3944 197.891 41.4667C197.891 45.1256 195.282 47.875 189.857 47.875Z" fill="white"/>
<path d="M172.191 26.2358H172.212C176.705 26.2358 179.501 29.2084 179.501 35.5133V47.5443H173.951V36.857C173.951 33.5495 172.957 31.4823 170.327 31.4823C168.008 31.4823 166.103 33.4875 166.103 37.1878V47.5443H160.574V36.857C160.574 33.5495 159.476 31.4823 156.888 31.4823C154.403 31.4823 152.518 33.4875 152.518 37.1878V47.5237H146.969V26.5873H152.518V29.6012H152.581C154.217 27.5754 156.474 26.2358 158.772 26.2358C161.526 26.2358 163.68 27.5547 164.922 29.8493H164.985C166.683 27.6787 169.23 26.2358 172.191 26.2358Z" fill="white"/>
<path d="M133.176 47.8751C126.591 47.8751 122.159 43.3687 122.159 37.2085C122.159 31.0483 126.591 26.5005 133.176 26.5005C139.637 26.5005 144.213 30.8622 144.213 37.2085C144.213 43.5547 139.637 47.8751 133.176 47.8751ZM133.176 42.9346V42.9139C136.178 42.9139 138.56 40.5573 138.56 37.2085C138.56 33.8183 136.241 31.4824 133.176 31.4824C129.945 31.4824 127.771 33.9423 127.771 37.2085C127.771 40.4333 130.007 42.9346 133.176 42.9346Z" fill="white"/>
<path d="M116.67 47.8749H116.649C113.087 47.8749 110.727 45.6423 110.727 40.9912V31.0977H108.283V26.5085H110.727V20.1127L116.276 19.5132V26.5292H121.909V31.1183H116.276V40.247C116.276 42.0248 116.794 42.893 118.099 42.893C118.741 42.893 119.776 42.6449 120.708 42.1695L122.137 46.5932C120.811 47.3168 119.445 47.8749 116.67 47.8749Z" fill="white"/>
<path d="M103.126 47.6269L100.963 41.294H88.774L86.6114 47.6269H80.0361L91.8104 15.875H97.905L109.723 47.6269H103.126ZM90.5871 35.9219H99.1283L94.8686 23.4527H94.8249L90.5871 35.9219Z" fill="white"/>
<ellipse cx="203.554" cy="19.3148" rx="3.4458" ry="3.43979" fill="white"/>
</svg>
